<svg width="200" height="200" viewBox="0 0 200 200" fill="none" xmlns="http://www.w3.org/2000/svg">
<path fill-rule="evenodd" clip-rule="evenodd" d="M54.9502 96.3824L54.8803 101.159C54.8602 106.038 55.301 109.88 56.1816 114.665L58.6989 126.767C59.1409 128.031 59.3294 129.407 59.6197 130.746C60.9542 136.887 61.0881 142.704 60.6236 149.061C60.409 152.008 60.0274 153.27 59.82 155.705L58.1347 165.53C57.957 165.94 58.0861 165.68 57.8764 165.943C58.2129 166.674 57.2257 170.584 57.0278 171.836C56.6865 173.999 56.3558 176.188 56.3072 178.437C56.28 182.038 57.9226 182.624 61.9426 183.97C74.1592 188.061 112.245 190.388 122.218 184.213C125.268 182.326 124.711 179.666 124.019 175.458L124.629 175.07L123.981 175.03L122.399 167.68L118.048 163.639C110.913 156.9 104.471 148.382 100.568 139.277C99.3379 136.41 96.8549 129.651 96.5444 126.577C96.9189 126.357 95.9827 126.276 97.1429 126.399C95.8867 125.696 93.6527 126.246 91.7351 123.082C89.4643 119.335 88.694 112.642 90.6933 108.693C91.805 106.498 93.6159 105.737 96.7483 106.034L95.4873 105.758C95.8464 104.905 95.9471 102.805 96.1533 101.618C96.9237 97.1812 98.7085 90.5715 100.244 86.5906C100.679 85.4659 101.305 84.1527 101.623 83.2378C102.233 81.4873 104.203 77.7861 104.548 76.4303C102.327 76.0261 98.2688 75.4727 95.9708 75.5651C96.1604 76.4729 96.3998 76.8723 96.1723 77.8122C93.8992 79.6006 83.2316 79.1751 81.5617 77.3037C81.1825 76.4694 82.1875 74.4428 81.1587 74.5305C77.8071 75.4359 77.1197 76.2549 72.2784 77.5751C60.8404 80.6945 58.0541 85.4896 54.9502 96.3824V96.3824Z" fill="#DF6E2A"/>
<path fill-rule="evenodd" clip-rule="evenodd" d="M108.037 109.456L108.306 110.738C108.723 112.119 108.733 113.949 108.641 115.437C108.51 117.606 109.118 117.584 110.123 118.769C111.614 118.797 110.68 118.119 113.563 119.238C114.606 119.643 115.642 120.104 116.578 120.518C118.583 121.402 120.562 122.404 122.453 123.466C123.375 123.982 124.294 124.575 125.2 125.015C125.78 125.295 126.185 125.259 126.706 125.643C128.816 127.2 131.464 128.402 133.609 129.695C136.654 131.531 142.99 134.364 145.358 136.321L145.884 136.991C146.61 138.141 146.712 137.388 147.364 138.625L148.677 140.646C149.261 141.674 149.726 142.338 150.163 143.446C150.434 144.131 151.145 146.705 151.26 146.866C152.259 138.8 145.098 120 141.059 112.092C140.214 110.437 139.4 108.779 138.529 107.187C137.91 106.053 136.04 103.252 135.853 102.289C135.223 102.059 135.347 101.943 134.991 101.335C134.752 100.926 134.566 100.732 134.275 100.309C134.001 99.9118 133.154 98.5133 133.051 98.2715L126.002 89.512C125.345 89.006 124.589 88.0235 123.917 87.3835C123.131 86.6333 122.435 86.0822 121.663 85.3308C120.84 84.532 117.909 82.0219 116.986 81.6722C116.705 82.17 118.462 83.7842 118.176 84.7797L113.063 94.6959C111.872 97.2902 108.852 104.817 108.466 107.801C108.358 108.638 108.682 108.76 108.037 109.456V109.456Z" fill="#6E6989"/>
<path fill-rule="evenodd" clip-rule="evenodd" d="M66.4309 24.364C66.7106 24.7835 66.0754 25.4686 65.6973 26.2057C65.3275 26.9263 64.9056 27.9289 64.8096 28.8368C64.5631 31.1763 65.753 32.2583 67.4869 32.909C73.7528 34.7602 85.461 31.9383 90.8641 35.1738C90.9755 35.9631 90.39 38.0442 90.1423 38.9153C90.6828 38.1805 90.6164 37.8191 90.9802 37.0606C93.3197 37.7432 92.1358 38.9201 91.6925 41.0403C91.4365 42.2669 90.5654 45.954 91.5728 46.8156C92.1073 47.2742 92.3254 47.3062 92.8338 47.4485C93.6551 45.8331 95.85 45.6043 97.6681 46.5679C98.5214 47.0206 98.9232 47.4342 99.364 48.1986C100.064 49.4087 99.6034 50.0119 99.8014 51.2492L99.78 52.1251C101.141 52.6311 100.784 55.3037 100.709 57.1715C100.67 58.1279 100.591 58.9551 100.527 59.8961C100.482 60.5527 100.694 62.6907 100.688 62.718C103.256 62.2321 107.488 49.2013 108.803 45.4657C110.117 41.7301 111.085 39.579 111.166 35.0707C111.232 31.3718 110.324 27.2795 108.595 24.7764C108.116 25.0656 108.266 24.5584 108.229 25.0964C107.145 23.4182 104.87 22.2437 103.125 21.3632C100.983 20.2835 98.9398 19.7502 96.8645 18.8483C93.1752 17.2459 87.1403 16.0963 82.8418 15.4078C76.6932 14.4229 65.7424 12.1806 62.8873 19.5238C61.957 21.9166 64.2858 22.7391 66.7201 23.7418L66.4309 24.364V24.364Z" fill="#353535"/>
<path fill-rule="evenodd" clip-rule="evenodd" d="M75.5471 60.2742C77.211 60.0111 81.1007 59.9578 82.4459 60.4271C81.7348 63.0095 75.7237 64.1165 75.5471 60.2742ZM81.9054 56.1155C79.9179 56.1499 75.7237 57.1655 76.2167 53.7499C76.7168 50.2845 77.3485 51.9935 77.3236 46.018C80.4299 51.894 74.151 55.3001 81.9054 56.1155ZM71.3836 46.7113C74.0384 45.4515 75.4428 49.5687 73.0831 50.4279C70.3751 51.4152 69.069 47.8099 71.3836 46.7113ZM83.2115 46.7504C84.3824 46.479 85.3139 47.1842 85.5913 48.0932C85.935 49.2238 85.2357 50.4019 84.271 50.6721C81.3923 51.4756 80.7701 47.3145 83.2115 46.7504V46.7504ZM68.1422 45.0047C68.2856 43.6595 68.448 43.7863 69.76 43.3763C70.6571 43.0954 71.4144 42.85 72.3649 42.6687C74.5255 42.2551 76.7488 42.7185 76.2558 45.0106C75.6798 45.3673 68.736 45.8295 68.0605 45.2559C68.4575 48.2449 68.9706 51.3796 69.0666 54.4195C69.2314 59.6271 70.7697 66.0649 74.1083 69.9297C76.1112 72.249 77.467 72.7728 81.5345 72.857C81.6103 73.7044 81.6649 74.0374 81.1588 74.5304C82.1875 74.4427 81.1825 76.4693 81.5617 77.3037C83.2316 79.1751 93.8992 79.6005 96.1723 77.8121C96.3999 76.8723 96.1605 76.4729 95.9709 75.5651L95.8749 74.9737L95.0464 72.3521C94.2536 72.3035 93.1514 72.921 92.3016 73.1485C91.2729 73.4247 90.1766 73.6902 89.1005 73.8561C86.537 74.2507 84.284 74.4178 81.672 74.3787L81.7715 72.8534C89.1692 73.0869 90.3224 71.6659 94.7395 70.8754C95.8144 69.951 96.554 69.9794 97.5483 68.8132C98.1101 68.1555 99.0914 66.341 99.4173 65.483C97.3895 65.6963 97.8458 61.9571 97.8742 60.3252C97.8932 59.2656 97.8209 58.2488 98.2274 57.3753C98.3981 57.0079 99.0831 55.1188 99.249 54.922C99.2727 53.8435 99.39 52.0575 99.8013 51.2492C99.6034 50.0119 100.064 49.4087 99.364 48.1986C98.9231 47.4342 98.5213 47.0206 97.668 46.5679C95.85 45.6043 93.6551 45.8331 92.8338 47.4484L92.6998 48.0955C92.3265 48.8825 92.7994 50.2051 92.9143 51.1663C91.6699 51.0051 90.1624 50.1684 89.5924 49.5568C88.8422 48.7509 88.4416 47.2766 88.4605 45.7667L87.6369 45.4313L80.7961 45.0521C80.1858 43.17 81.7549 42.2444 83.6737 42.4115C85.3365 42.5549 86.953 43.1499 88.4167 43.6903C88.6146 43.4237 88.4795 43.6808 88.6229 43.266L89.6433 37.8072C87.0668 35.7118 76.8602 36.1705 72.9919 36.1954C70.9795 36.2096 69.338 36.0046 67.4608 35.9038L67.6279 33.6331C66.8457 34.4556 67.5591 43.9925 68.1422 45.0047V45.0047Z" fill="#FDC296"/>
<path fill-rule="evenodd" clip-rule="evenodd" d="M110.123 118.769L108.485 120.427C106.804 122.046 105.797 124.123 105.058 126.54C103.616 126.822 100.811 126.676 99.261 126.599C100.97 126.997 103.061 126.615 104.862 126.733C105.101 127.083 104.879 126.669 105.064 127.185C105.143 127.406 105.16 127.544 105.246 127.78C105.496 128.466 106.592 129.795 107.076 130.38C107.293 130.563 107.167 130.466 107.371 130.712L108.178 131.668C108.553 132.095 108.761 132.421 109.145 132.854C110.371 134.242 110.804 134.169 111.293 135.073C112.524 135.853 114.131 137.718 114.546 138.023L117.962 140.622C118.399 141.499 122.631 143.939 123.648 144.886C124.488 145.274 128.463 147.735 130.946 148.972L139.076 152.345C139.704 152.376 140.138 152.513 140.626 152.645C141.482 152.879 141.372 152.738 141.789 153.381C141.769 152.308 145.276 154.518 148.765 152.893C150.955 151.874 151.369 149.796 151.26 146.866C151.145 146.705 150.434 144.131 150.163 143.446C149.726 142.338 149.262 141.674 148.677 140.646L147.364 138.625C146.712 137.388 146.61 138.141 145.884 136.991L145.358 136.321C142.99 134.364 136.654 131.531 133.609 129.695C131.464 128.402 128.816 127.2 126.706 125.643C126.185 125.259 125.78 125.295 125.2 125.015C124.294 124.575 123.375 123.982 122.453 123.466C120.562 122.404 118.583 121.402 116.578 120.518C115.642 120.104 114.606 119.643 113.563 119.238C110.68 118.119 111.614 118.797 110.123 118.769V118.769Z" fill="#83799E"/>
<path fill-rule="evenodd" clip-rule="evenodd" d="M122.399 167.68C122.92 167.863 123.797 168.647 124.343 169.08L128.172 171.892C129.577 172.768 129.109 172.273 129.596 174.023C131.516 173.415 133.232 172.8 134.902 171.873C136.216 171.144 138.699 169.567 139.121 168.699C139.32 167.524 139.797 166.589 139.976 165.06C140.152 163.545 140.18 162.118 140.088 160.596C139.918 157.718 139.441 155.167 139.076 152.345L130.946 148.972C128.463 147.735 124.488 145.274 123.648 144.886C123.968 147.61 124.41 150.544 124.999 153.194C125.275 154.438 125.382 156.14 125.696 157.101L126.651 161.025C125.947 160.579 126.009 160.535 125.532 159.889C124.266 158.178 123.293 157.715 122.479 156.677C121.748 155.744 119.192 153.073 118.943 151.94C118.162 151.838 118.492 151.647 117.932 150.862L114.623 146.148C112.747 143.514 107.416 133.236 107.076 130.38C106.592 129.795 105.496 128.466 105.246 127.78C105.159 127.544 105.143 127.406 105.063 127.185C104.878 126.669 105.101 127.083 104.862 126.733C103.06 126.614 100.97 126.997 99.2608 126.599L97.143 126.399C95.9827 126.276 96.919 126.357 96.5445 126.577C96.855 129.651 99.3379 136.41 100.568 139.277C104.471 148.382 110.913 156.9 118.048 163.639L122.399 167.68V167.68Z" fill="#64A846"/>
<path fill-rule="evenodd" clip-rule="evenodd" d="M95.875 74.9737L95.971 75.5651C98.269 75.4727 102.327 76.0261 104.548 76.4303C104.203 77.7861 102.233 81.4873 101.623 83.2378C101.305 84.1528 100.68 85.4659 100.245 86.5906C98.7087 90.5716 96.9238 97.1812 96.1535 101.618C95.9473 102.805 95.8465 104.905 95.4874 105.758L96.7484 106.034C98.4657 106.233 100.274 106.841 101.572 107.574C102.686 108.202 104.722 109.615 105.066 110.313C105.623 109.77 105.039 110.621 105.314 109.899C105.362 109.77 105.424 109.523 105.455 109.387C105.53 109.049 105.577 108.664 105.638 108.357C105.775 107.671 105.914 107.061 105.991 106.373C106.691 103.38 108.171 99.1663 109.471 96.4227L110.199 94.8014C111.006 92.7036 114.307 87.0019 115.518 84.4656C115.888 83.6929 116.392 82.055 116.787 81.4494C117.088 80.1066 117.213 79.5958 117.035 78.1642C119.609 78.8717 121.768 80.3911 123.185 82.6476C123.993 83.9359 125.68 87.1998 126.048 88.7879C126.275 89.7751 126.153 89.3011 126.002 89.512L133.051 98.2715C133.082 95.3382 130.929 88.4205 129.87 85.9281C128.099 81.7576 126.213 79.0341 123.609 76.9352C120.239 74.22 115.59 74.7616 110.729 74.5696C108.942 74.4997 96.6335 74.1453 95.875 74.9737V74.9737Z" fill="#64A846"/>
<path fill-rule="evenodd" clip-rule="evenodd" d="M97.1432 126.399L99.261 126.599C100.811 126.676 103.616 126.822 105.058 126.54C105.797 124.123 106.805 122.046 108.485 120.427L110.123 118.769C109.118 117.584 108.51 117.606 108.642 115.437C108.733 113.949 108.723 112.119 108.306 110.738L108.061 110.544C108.076 111.141 107.855 114.518 107.578 115.076L105.066 110.313C104.722 109.615 102.686 108.202 101.572 107.574C100.274 106.841 98.4658 106.233 96.7485 106.034C93.6161 105.737 91.8052 106.498 90.6935 108.693C88.6942 112.641 89.4645 119.335 91.7353 123.082C93.6529 126.246 95.8869 125.696 97.1432 126.399V126.399Z" fill="#FDC296"/>
<path fill-rule="evenodd" clip-rule="evenodd" d="M54.4799 162.065C55.255 163.985 56.2766 164.935 57.8765 165.943C58.0863 165.68 57.9571 165.94 58.1349 165.53L59.8202 155.705C60.0276 153.27 60.4092 152.008 60.6237 149.061C61.0883 142.704 60.9544 136.887 59.6199 130.746C59.3295 129.407 59.1411 128.031 58.699 126.767L56.1818 114.665C55.3012 109.88 54.8603 106.038 54.8805 101.158L54.9504 96.3823C51.1034 117.958 56.8597 126.668 55.7006 145.746C55.5359 148.46 55.3344 151.126 55.0891 153.819C54.8745 156.178 54.1315 159.903 54.4799 162.065V162.065Z" fill="#57556A"/>
<path fill-rule="evenodd" clip-rule="evenodd" d="M96.1049 71.8722C95.7932 71.9681 95.3866 72.0239 95.0465 72.3521L95.8749 74.9737C96.6334 74.1453 108.942 74.4996 110.728 74.5696C115.59 74.7616 120.239 74.2199 123.609 76.9351C126.213 79.034 128.099 81.7575 129.87 85.9281C130.929 88.4205 133.082 95.3382 133.051 98.2715C133.154 98.5133 134.001 99.9118 134.275 100.309C134.566 100.732 134.752 100.926 134.991 101.335C135.347 101.943 135.223 102.059 135.853 102.289C135.578 91.9878 132.7 81.4044 127.389 75.5035C123.868 71.5901 120.299 71.7963 113.669 71.6458C107.59 71.5071 102.134 71.6624 96.1049 71.8722V71.8722Z" fill="#C1DCB5"/>
<path fill-rule="evenodd" clip-rule="evenodd" d="M66.4309 24.364L66.7201 23.7418C64.2858 22.7391 61.957 21.9166 62.8873 19.5238C65.7423 12.1806 76.6932 14.4229 82.8418 15.4078C87.1403 16.0963 93.1752 17.2459 96.8645 18.8483C98.9398 19.7502 100.983 20.2835 103.125 21.3632C104.87 22.2437 107.145 23.4182 108.229 25.0964C108.266 24.5584 108.116 25.0656 108.595 24.7764C105.681 18.1241 88.54 14.2143 81.4871 13.1133C76.679 12.3643 68.5535 10.89 64.6378 13.4155C59.9801 16.4211 59.5867 21.8645 66.4309 24.364V24.364Z" fill="#5C554F"/>
<path fill-rule="evenodd" clip-rule="evenodd" d="M56.3074 178.437C56.3559 176.188 56.6866 173.999 57.0279 171.836C57.2259 170.584 58.2131 166.674 57.8765 165.943C56.2765 164.935 55.2549 163.985 54.4799 162.065C53.3267 164.661 48.6939 166.465 48.6465 171.154C48.6216 173.542 49.3339 175.608 50.6115 176.723C52.8562 178.683 53.3682 177.83 56.3074 178.437V178.437Z" fill="#FDC296"/>
<path fill-rule="evenodd" clip-rule="evenodd" d="M67.6279 33.6331L67.4608 35.9039C69.3381 36.0046 70.9795 36.2097 72.9919 36.1954C76.8603 36.1705 87.0668 35.7119 89.6434 37.8072L88.623 43.2661C88.4796 43.6809 88.6147 43.4237 88.4167 43.6904C88.9844 44.5863 89.3767 45.5273 87.6369 45.4313L88.4606 45.7667C88.4416 47.2766 88.8422 48.751 89.5924 49.5569C90.1625 50.1684 91.67 51.0051 92.9144 51.1663C92.7994 50.2052 92.3266 48.8825 92.6999 48.0956C89.2926 47.0526 89.3151 42.6095 90.1423 38.9154C90.39 38.0443 90.9755 35.9631 90.8641 35.1738C85.461 31.9384 73.7528 34.7602 67.4869 32.909L67.6279 33.6331V33.6331Z" fill="#E19B75"/>
<path fill-rule="evenodd" clip-rule="evenodd" d="M118.328 148.85C118.657 149.396 118.88 151.182 118.943 151.94C119.192 153.073 121.748 155.744 122.479 156.677C123.294 157.715 124.267 158.178 125.532 159.889C126.009 160.535 125.947 160.579 126.651 161.025L125.696 157.101C125.382 156.14 125.275 154.438 124.999 153.194C124.41 150.544 123.968 147.61 123.648 144.886C122.631 143.939 118.399 141.499 117.962 140.622C117.318 140.996 117.543 139.936 117.484 141.623L118.328 148.85V148.85Z" fill="#374E24"/>
<path fill-rule="evenodd" clip-rule="evenodd" d="M105.991 106.373C106.67 106.718 106.234 106.395 106.694 106.957C106.789 107.074 107.158 107.621 107.246 107.771C107.581 108.331 107.737 108.85 108.037 109.456C108.682 108.76 108.358 108.638 108.466 107.801C108.852 104.817 111.872 97.2902 113.063 94.6959L118.176 84.7797C118.462 83.7841 116.705 82.17 116.986 81.6722C116.986 81.383 117.063 81.447 116.787 81.4494C116.392 82.055 115.887 83.6929 115.518 84.4656C114.306 87.0018 111.006 92.7036 110.199 94.8013L109.471 96.4226C108.171 99.1663 106.691 103.38 105.991 106.373V106.373Z" fill="#57556A"/>
<path fill-rule="evenodd" clip-rule="evenodd" d="M118.943 151.94C118.88 151.182 118.657 149.396 118.328 148.85L118.287 149.444C117.715 148.267 116.863 147.176 116.288 146.043C115.736 144.955 115.069 143.781 114.458 142.59C113.362 140.454 111.961 137.457 111.293 135.073C110.804 134.169 110.371 134.242 109.145 132.854C108.761 132.421 108.553 132.095 108.178 131.668L107.371 130.712C107.167 130.466 107.293 130.563 107.076 130.38C107.416 133.236 112.747 143.514 114.623 146.148L117.932 150.862C118.493 151.647 118.162 151.838 118.943 151.94V151.94Z" fill="#57556A"/>
<path fill-rule="evenodd" clip-rule="evenodd" d="M116.787 81.4494C117.063 81.447 116.986 81.383 116.986 81.6722C117.909 82.0218 120.84 84.532 121.663 85.3308C122.436 86.0822 123.131 86.6332 123.917 87.3834C124.589 88.0234 125.345 89.0059 126.002 89.512C126.153 89.301 126.275 89.7751 126.048 88.7879C125.681 87.1998 123.993 83.9358 123.185 82.6476C121.768 80.391 119.609 78.8717 117.035 78.1641C117.213 79.5958 117.088 80.1066 116.787 81.4494V81.4494Z" fill="#374E24"/>
<path fill-rule="evenodd" clip-rule="evenodd" d="M139.121 168.699C140.548 167.733 141.77 164.79 142.094 162.247C142.473 159.28 142.118 156.278 141.789 153.381C141.372 152.738 141.482 152.879 140.626 152.645C140.138 152.513 139.704 152.376 139.076 152.345C139.441 155.167 139.918 157.718 140.088 160.596C140.18 162.118 140.152 163.545 139.976 165.06C139.797 166.589 139.32 167.524 139.121 168.699Z" fill="#C1DCB5"/>
<path fill-rule="evenodd" clip-rule="evenodd" d="M118.328 148.85L117.484 141.623C117.543 139.936 117.318 140.996 117.962 140.622L114.546 138.023C114.131 137.718 112.524 135.853 111.293 135.073C111.961 137.458 113.362 140.454 114.458 142.59C115.069 143.782 115.736 144.955 116.288 146.043C116.863 147.176 117.715 148.267 118.288 149.444L118.328 148.85V148.85Z" fill="#6E6989"/>
<path fill-rule="evenodd" clip-rule="evenodd" d="M124.629 175.07C126.252 175.032 128.098 174.421 129.596 174.023C129.109 172.273 129.577 172.768 128.172 171.892L124.344 169.08C123.797 168.647 122.92 167.863 122.399 167.68L123.981 175.03L124.629 175.07V175.07Z" fill="#374E24"/>
<path fill-rule="evenodd" clip-rule="evenodd" d="M95.0466 72.3521C95.3867 72.0238 95.7933 71.9681 96.1049 71.8721L95.0869 71.9124L94.7396 70.8754C90.3226 71.6659 89.1694 73.0869 81.7717 72.8535L81.6721 74.3787C84.2842 74.4179 86.5372 74.2508 89.1007 73.8561C90.1768 73.6902 91.2731 73.4247 92.3018 73.1486C93.1515 72.921 94.2537 72.3035 95.0466 72.3521V72.3521Z" fill="#CF8C6C"/>
<path fill-rule="evenodd" clip-rule="evenodd" d="M68.1423 45.0047L68.0605 45.2559C68.7361 45.8295 75.6799 45.3673 76.2559 45.0106C76.7489 42.7185 74.5256 42.2551 72.365 42.6687C71.4145 42.8501 70.6572 43.0954 69.7601 43.3763C68.4481 43.7863 68.2857 43.6595 68.1423 45.0047Z" fill="#353535"/>
<path fill-rule="evenodd" clip-rule="evenodd" d="M87.6369 45.4313C89.3767 45.5273 88.9844 44.5863 88.4168 43.6903C86.9531 43.1499 85.3365 42.5549 83.6738 42.4115C81.755 42.2444 80.1858 43.17 80.7962 45.0521L87.6369 45.4313Z" fill="#353535"/>
<path fill-rule="evenodd" clip-rule="evenodd" d="M90.1424 38.9153C89.3152 42.6095 89.2927 47.0526 92.7 48.0956L92.8339 47.4485C92.3255 47.3063 92.1074 47.2742 91.5729 46.8156C90.5655 45.954 91.4366 42.267 91.6926 41.0403C92.1359 38.9201 93.3198 37.7432 90.9803 37.0606C90.6165 37.8191 90.6829 38.1806 90.1424 38.9153V38.9153Z" fill="#333535"/>
<path fill-rule="evenodd" clip-rule="evenodd" d="M99.2491 54.9221C99.0891 57.5484 98.7643 60.7364 99.7741 62.8235L100.621 62.9373L100.688 62.718C100.694 62.6908 100.482 60.5527 100.527 59.8962C100.591 58.9551 100.67 58.1279 100.709 57.1715C100.784 55.3037 101.141 52.6312 99.78 52.1251L99.8013 51.2493C99.3901 52.0575 99.2728 53.8436 99.2491 54.9221V54.9221Z" fill="#5C554F"/>
<path fill-rule="evenodd" clip-rule="evenodd" d="M105.066 110.313L107.578 115.076C107.854 114.518 108.076 111.141 108.061 110.544L108.306 110.738L108.037 109.456C107.737 108.85 107.581 108.331 107.246 107.771C107.158 107.621 106.789 107.074 106.694 106.958C106.234 106.395 106.671 106.718 105.991 106.373C105.914 107.061 105.775 107.671 105.638 108.357C105.577 108.664 105.53 109.049 105.455 109.387C105.424 109.523 105.362 109.77 105.313 109.899C105.039 110.621 105.623 109.77 105.066 110.313V110.313Z" fill="#CF9C84"/>
<path fill-rule="evenodd" clip-rule="evenodd" d="M82.4459 60.4271C81.1008 59.9578 77.2111 60.0111 75.5471 60.2742C75.7237 64.1165 81.7348 63.0095 82.4459 60.4271Z" fill="white"/>
<path fill-rule="evenodd" clip-rule="evenodd" d="M81.9055 56.1155C74.151 55.3001 80.43 51.894 77.3237 46.018C77.3486 51.9935 76.7169 50.2845 76.2167 53.7499C75.7237 57.1655 79.918 56.1499 81.9055 56.1155Z" fill="#E19B75"/>
<path fill-rule="evenodd" clip-rule="evenodd" d="M99.4173 65.4829C99.7646 64.9698 100.45 63.6685 100.621 62.9372L99.7741 62.8235C98.7643 60.7364 99.0891 57.5483 99.249 54.922C99.0831 55.1188 98.3981 57.0079 98.2274 57.3753C97.8209 58.2488 97.8932 59.2656 97.8743 60.3251C97.8458 61.9571 97.3895 65.6963 99.4173 65.4829Z" fill="#E19B75"/>
<path fill-rule="evenodd" clip-rule="evenodd" d="M73.4304 47.9913C73.1128 48.22 73.8666 48.226 72.986 48.2117C72.1303 48.1975 72.8272 48.2105 72.5214 48.0446C72.0711 46.6627 73.8429 46.805 73.4304 47.9913ZM71.3837 46.7113C69.0691 47.81 70.3751 51.4152 73.0832 50.428C75.4429 49.5687 74.0384 45.4515 71.3837 46.7113Z" fill="#353535"/>
<path fill-rule="evenodd" clip-rule="evenodd" d="M84.8008 48.2484C84.6313 48.3231 84.7356 48.3278 84.341 48.3812C84.0743 48.4167 84.2201 48.3741 83.9676 48.3278C83.4403 46.8488 85.2642 47.0254 84.8008 48.2484V48.2484ZM83.2115 46.7504C80.7701 47.3145 81.3923 51.4756 84.2711 50.6721C85.2358 50.4019 85.935 49.2238 85.5913 48.0932C85.314 47.1842 84.3825 46.479 83.2115 46.7504V46.7504Z" fill="#353535"/>
</svg>
