<svg width="300" height="300" viewBox="0 0 300 300" fill="none" xmlns="http://www.w3.org/2000/svg">
<g clip-path="url(#clip0_10_116)">
<rect width="300" height="300" fill="#64A846"/>
<path d="M153 223C200.496 223 239 184.944 239 138C239 91.0558 200.496 53 153 53C105.504 53 67 91.0558 67 138C67 184.944 105.504 223 153 223Z" fill="#F2751F"/>
<path d="M289.108 293.186C269.122 258.707 237.132 232.83 199.27 220.514C217.418 209.707 231.521 193.231 239.412 173.619C247.304 154.006 248.547 132.341 242.951 111.952C237.355 91.5635 225.229 73.5786 208.437 60.7605C191.645 47.9423 171.114 41 150 41C128.886 41 108.355 47.9423 91.563 60.7605C74.7707 73.5786 62.6451 91.5635 57.0491 111.952C51.4531 132.341 52.6963 154.006 60.5876 173.619C68.4789 193.231 82.5818 209.707 100.73 220.514C62.8681 232.83 30.8778 258.707 10.8921 293.186C10.0538 294.404 9.47614 295.782 9.19534 297.234C8.91454 298.687 8.93669 300.181 9.26041 301.624C9.58413 303.068 10.2024 304.428 11.0764 305.621C11.9504 306.813 13.0612 307.812 14.3391 308.553C15.6169 309.295 17.0341 309.764 18.5017 309.931C19.9693 310.098 21.4556 309.96 22.867 309.524C24.2785 309.088 25.5847 308.364 26.7035 307.399C27.8223 306.433 28.7296 305.246 29.3684 303.912C41.6107 282.727 59.2007 265.139 80.3738 252.911C101.547 240.683 125.559 234.247 150 234.247C174.441 234.247 198.453 240.683 219.626 252.911C240.799 265.139 258.389 282.727 270.632 303.912C271.27 305.246 272.178 306.433 273.296 307.399C274.415 308.364 275.722 309.088 277.133 309.524C278.544 309.96 280.031 310.098 281.498 309.931C282.966 309.764 284.383 309.295 285.661 308.553C286.939 307.812 288.05 306.813 288.924 305.621C289.798 304.428 290.416 303.068 290.74 301.624C291.063 300.181 291.085 298.687 290.805 297.234C290.524 295.782 289.946 294.404 289.108 293.186V293.186ZM75.0236 137.652C75.0236 122.802 79.4209 108.285 87.6594 95.9371C95.8979 83.5894 107.608 73.9655 121.308 68.2825C135.008 62.5995 150.083 61.1125 164.627 64.0097C179.171 66.9069 192.531 74.0581 203.016 84.5589C213.502 95.0598 220.643 108.439 223.536 123.004C226.429 137.569 224.944 152.666 219.269 166.386C213.594 180.106 203.984 191.833 191.655 200.083C179.325 208.334 164.829 212.737 150 212.737C130.115 212.737 111.045 204.827 96.9837 190.745C82.9229 176.664 75.0236 157.566 75.0236 137.652Z" fill="white"/>
</g>
<defs>
<clipPath id="clip0_10_116">
<rect width="300" height="300" fill="white"/>
</clipPath>
</defs>
</svg>
